<svg xmlns="http://www.w3.org/2000/svg" viewBox="0 0 500 383.12"><defs><style>.cls-1{fill:#ebebeb;}.cls-2{fill:#f0f0f0;}.cls-3{fill:#f5f5f5;}.cls-21,.cls-4,.cls-7{fill:#407bff;}.cls-11,.cls-5{opacity:0.7;}.cls-10,.cls-11,.cls-12,.cls-18,.cls-19,.cls-23,.cls-29,.cls-30,.cls-31,.cls-6,.cls-9{fill:#fff;}.cls-14,.cls-16,.cls-23,.cls-29,.cls-30,.cls-31,.cls-7,.cls-9{isolation:isolate;}.cls-21,.cls-8{opacity:0.4;}.cls-10,.cls-14,.cls-27,.cls-31{opacity:0.3;}.cls-12{opacity:0.8;}.cls-13{fill:#e4897b;}.cls-15{fill:#263238;}.cls-16,.cls-19,.cls-23{opacity:0.2;}.cls-17{fill:#de5753;}.cls-18{opacity:0.5;}.cls-20{fill:#ebb376;}.cls-22{fill:#d58745;}.cls-24{fill:#eec1bb;}.cls-25{fill:#d4827d;}.cls-26{fill:#9f5b53;}.cls-28{fill:#892b29;}.cls-29{opacity:0.6;}.cls-30{opacity:0.05;}</style></defs><g id="Character"><rect class="cls-1" y="337.95" width="500" height="0.25"/><rect class="cls-1" x="416.78" y="354.05" width="33.12" height="0.25"/><rect class="cls-1" x="322.53" y="356.76" width="8.69" height="0.25"/><rect class="cls-1" x="396.59" y="344.76" width="19.19" height="0.25"/><rect class="cls-1" x="52.46" y="346.44" width="43.19" height="0.25"/><rect class="cls-1" x="104.56" y="346.44" width="6.33" height="0.25"/><rect class="cls-1" x="131.47" y="350.67" width="93.68" height="0.25"/><path class="cls-1" d="M237,352.6H43.91a5.71,5.71,0,0,1-5.7-5.71V75.46a5.71,5.71,0,0,1,5.7-5.71H237a5.71,5.71,0,0,1,5.71,5.71V346.89A5.71,5.71,0,0,1,237,352.6ZM43.91,70a5.46,5.46,0,0,0-5.45,5.46V346.89a5.46,5.46,0,0,0,5.45,5.46H237a5.47,5.47,0,0,0,5.46-5.46V75.46A5.47,5.47,0,0,0,237,70Z" transform="translate(0 -59.24)"/><path class="cls-1" d="M453.31,352.6H260.21a5.72,5.72,0,0,1-5.71-5.71V75.46a5.72,5.72,0,0,1,5.71-5.71h193.1A5.71,5.71,0,0,1,459,75.46V346.89A5.71,5.71,0,0,1,453.31,352.6ZM260.21,70a5.47,5.47,0,0,0-5.46,5.46V346.89a5.47,5.47,0,0,0,5.46,5.46h193.1a5.47,5.47,0,0,0,5.46-5.46V75.46A5.47,5.47,0,0,0,453.31,70Z" transform="translate(0 -59.24)"/><polygon class="cls-2" points="393.93 101.86 285.09 65.1 285 65.02 227.5 6.08 181.38 48.2 180.71 47.46 227.54 4.68 285.63 64.23 393.55 100.68 437.85 39.74 438.66 40.33 393.93 101.86"/><path class="cls-2" d="M55.61,251.59a5.38,5.38,0,1,1-5.38-5.38A5.38,5.38,0,0,1,55.61,251.59Z" transform="translate(0 -59.24)"/><path class="cls-2" d="M232.9,64.62a5.38,5.38,0,1,1-5.38-5.38A5.38,5.38,0,0,1,232.9,64.62Z" transform="translate(0 -59.24)"/><path class="cls-2" d="M443.63,99.28a5.38,5.38,0,1,1-5.38-5.38A5.38,5.38,0,0,1,443.63,99.28Z" transform="translate(0 -59.24)"/><path class="cls-2" d="M444.1,383.18a5.38,5.38,0,1,1-5.38-5.38A5.38,5.38,0,0,1,444.1,383.18Z" transform="translate(0 -59.24)"/><path class="cls-2" d="M290.74,123.91a5.38,5.38,0,1,1-5.38-5.38A5.38,5.38,0,0,1,290.74,123.91Z" transform="translate(0 -59.24)"/><polygon class="cls-2" points="191.35 324.08 190.94 324 56.02 298.52 56.2 297.54 190.71 322.94 284.89 64.49 285.83 64.84 191.35 324.08"/><rect class="cls-2" x="84.66" y="137.72" width="1" height="61.49" transform="translate(-97.42 61.3) rotate(-48.47)"/><polygon class="cls-2" points="438.46 324.37 371.75 283.02 373.21 282.63 443.29 215.2 393.28 101.47 394.2 101.07 444.49 215.44 444.24 215.68 374.01 283.25 438.98 323.51 438.46 324.37"/><polygon class="cls-2" points="56.53 298.3 55.69 297.76 96.01 235.49 49.53 192.37 49.87 192 108.08 128.97 108.43 129.18 373.71 282.64 373.21 283.51 108.27 130.24 50.94 192.32 97.3 235.32 56.53 298.3"/><ellipse id="_Path_" data-name="&lt;Path&gt;" class="cls-3" cx="250" cy="371.79" rx="193.89" ry="11.32"/><path class="cls-4" d="M241,313.93q4,.33,8,.27a81.27,81.27,0,0,0,79.72-74.59c0-.49.08-1,.11-1.47a81.08,81.08,0,0,0-3.46-29.31h0A81.38,81.38,0,0,0,262.65,153a83.05,83.05,0,0,0-8.25-1.1,81.29,81.29,0,1,0-13.4,162Z" transform="translate(0 -59.24)"/><g class="cls-5"><path class="cls-6" d="M241,313.93q4,.33,8,.27a81.27,81.27,0,0,0,79.72-74.59c0-.49.08-1,.11-1.47a81.08,81.08,0,0,0-3.46-29.31h0A81.38,81.38,0,0,0,262.65,153a83.05,83.05,0,0,0-8.25-1.1,81.29,81.29,0,1,0-13.4,162Z" transform="translate(0 -59.24)"/></g><path class="cls-7" d="M186.82,252.74c-.27,1.51-2.19,2.06-3.74,2.25l-7,.87c-1.1-2.89-4.52-2.92-6.92-1.79A81.31,81.31,0,0,0,241,313.93q4,.33,8,.27a1.37,1.37,0,0,0,.13-.2c1.22-2.13-.54-4-1.48-5.76-.21-.4-2.21-5.43-1.55-5.44a21.89,21.89,0,0,1-6.33-.82.67.67,0,0,1-.4-.25c-.2-.33.27-.65.64-.74,1-.22,1.95-.28,2.89-.56a3.31,3.31,0,0,0,2.24-1.77c.37-.91.09-2,.3-2.93a4.08,4.08,0,0,1,2.31-2.63,13.37,13.37,0,0,1,3.35-.89c-2.45-1.34-.66-4.13-2.59-6-.62-.6-1.52-1.33-1.14-2.1s1.66-.72,1.82-1.52c.11-.56-.48-1-1-1.15a6.3,6.3,0,0,1-1.67-.36A1.5,1.5,0,0,1,246,279c.42-.59,1.2-.77,1.84-1.11s1.21-1.13.83-1.74a1.2,1.2,0,0,0-.37-.34c-1-.65-2.41-.11-3.42.57s-2,1.54-3.27,1.53a1,1,0,0,1,.4-1.39,1.62,1.62,0,0,0,.49-.25c.29-.29.08-.77-.12-1.13a7.33,7.33,0,0,1-.56-5.58l7.44.14c.06-.56.12-.89.72-1.06-1.67-2-3.48-3.84-5-6a1.53,1.53,0,0,0-.66-.65,4.54,4.54,0,0,0-1,0c-1.07-.15-1.24-1.62-1.13-2.7-.16-.32-.68-.18-.88.12s-.25.69-.49,1a1.37,1.37,0,0,1-1.5.16,3.58,3.58,0,0,1-1.89-4.64,1.07,1.07,0,0,1,.4-.51c.43-.24.94.06,1.42.14,1.9.34,1.61-1.76,1.16-2.75-.62-1.34-2.47-2.21-3.81-2.56-1.57-.4-12-2.4-10.32-5.81a1.59,1.59,0,0,1,.81-.68,22.6,22.6,0,0,1,3.2-.61c1-.3,2.06-1.39,1.6-2.37-.18-.4-.56-.67-.77-1-.59-1.07.32-2.45-.1-3.59a10.22,10.22,0,0,0-.92-1.4c-.28-.48-.33-1.21.15-1.5s1.27.16,1.84-.1a1,1,0,0,0,0-1.62,1.69,1.69,0,0,0-1.85.14,2.18,2.18,0,0,1-.89.49c-.61.08-1.07-.53-1.38-1.06l-1.49-2.53a1.43,1.43,0,0,0-1.18,1.05c-.19.52-.23,1.1-.44,1.62-1.06,2.51-4.87,2.21-4.38,5.64a1.64,1.64,0,0,1,1.66,2c-.4,1.21-2.22,1.88-2,3.13.09.44.44.79.51,1.23.19,1.21-1.68,1.66-2.49,1.93-2.67.92-2.85-.83-5.16-.94-1.06,0-2,.67-3.06.78s-1.93-.3-2.91-.24c-2.67.15-1.33,3.78-1.14,5.35-1.44-1-3.36.16-4.5,1.45-1.76,2-1.59,1.64-3.92,1.72a1.72,1.72,0,0,0-1.51.89c-.43,1,.49,2,.52,3.1,0,.52-.19,1-.15,1.53.13,1.34,1.72,1.93,2.68,2.87a3.67,3.67,0,0,1,1,3.24,7.85,7.85,0,0,1-2-.15l-1.21-2.33a4.85,4.85,0,0,0-1.36-1.85,4.44,4.44,0,0,1-1-.78c-.5-.7-.09-1.66,0-2.51.29-2.07-.75-5.55-1.26-7.6s-2-3-2.52-5.07a.63.63,0,0,0-.91-.29,1.38,1.38,0,0,0-.57.91,3.72,3.72,0,0,0,.22,2.5c-.47-1-3,1.66-3.2,2.17-.26.84.3,2,.27,2.89-.05,2.15-.57,3.36-2.79,1.78-.85-.61-1.94-1.32-2.84-.79a1.35,1.35,0,0,1-.75,1.52,2.8,2.8,0,0,1-1.81.13,1.77,1.77,0,0,1-1.09-.53,3.51,3.51,0,0,0-.4-.53c-.57-.44-1.29.33-1.6,1" transform="translate(0 -59.24)"/><path class="cls-7" d="M285,188.82c.45.71,0,1.62-.54,2.28s-1.11,1.44-.89,2.24l2.9.27a.51.51,0,0,1,.57.71c-.07.62-.15,1.24-.22,1.86-.61.48-1.2-1-2-.87-.33.06-.5.42-.69.71-1.56,2.46-4.3.62-5.76-.66-1.7-1.48-4.16-1.58-6.41-1.6a3,3,0,0,0-2.28.6c-.56.56-.59,1.44-.87,2.19-.49,1.29-1.73,2.14-2.44,3.34-2.46,4.17,2,7.38,5.73,6.24,1.95-.59,1.61-.93,3.6-.35.83.23,1.85,0,2.36.95a1.55,1.55,0,0,1-1.35,2.26,6.68,6.68,0,0,1-3.21-.37c.38,1.32,0,2.82-.14,4.22a1.84,1.84,0,0,0-2,2.46c.63,0,1.49.25,1.44.88a1.13,1.13,0,0,1-.22.5c-.45.64-1,1.19-1.39,1.86-.59,1-.58,4.15-2.07,4.53-.26.06-.54,0-.8.12a1.2,1.2,0,0,0-.73,1.39,1.65,1.65,0,0,0,1.18,1.15c.37.1.77.09,1.13.21,1.92.67.23,2.57.69,3.51a17.32,17.32,0,0,0,3.84,2.55,4.55,4.55,0,0,0-2.17,3.42c0,1.56,1.15,2.32,2.63,2.78s3.48.66,4.61,1.09c.61.24,1.35.46,1.86.05s.5-1.69,1.24-2a2.16,2.16,0,0,1,.76-.12,2.88,2.88,0,0,0,2.45-3.23c.35-.45,1-.41,1.61-.4s1.3-.17,1.38-.74-.74-1-1.4-1.05a7.16,7.16,0,0,0-2,.16A2.4,2.4,0,0,1,284,232a2,2,0,0,1-.78-.81,4.46,4.46,0,0,1-.82-2.58,1.89,1.89,0,0,1,1.73-1.79,3.62,3.62,0,0,0,.73,0c.63-.1.9-.86.86-1.49a5.69,5.69,0,0,1-.08-1.88c.17-.61,1-1.06,1.44-.59.35-.81.58-2-.21-2.37a2.3,2.3,0,0,0-.83-.14c-1.74-.17-4.09-2.52-2.15-3.86,1.27-.88,3.32,1,4.43-.71.54-.8.21-2,.76-2.75.32-.23.7.24.77.63a3.7,3.7,0,0,1-1.21,3.42c1,.57,2.52-.08,3.19.84s-.32,2.48.55,3.18a1.83,1.83,0,0,0,.89.31c1.57.23,4.49,0,4.58,2.2a3.64,3.64,0,0,0,.05.81c.24.79,1.32.86,2.14.78.42-.8-.13-1.75-.5-2.58s-.33-2.11.55-2.32c.64-.15,1.38.39,1.91,0,.25-.17.36-.5.63-.64.65-.35,1.19.65,1.89.87,1,.31,1.69-.95,1.69-2s-.25-2.15.4-2.92c.21-.24.49-.41.72-.63a4.21,4.21,0,0,0,.94-2.73c.16-1.56,6.33,2.48,6.72,2.55,3,.49,4.78-2.45,6.81-4.06a18.12,18.12,0,0,1,3.54-2,82,82,0,0,0-58.85-55,25.19,25.19,0,0,0-3.78-.73c.38,1.89,1.55,4.87.28,6.66-1.61,2.28-5,.29-6.27,3,0,.68,1.1.57,1.62,1a2.32,2.32,0,0,1,.51,1c.15.36.49.71.85.6.42.63-.24,1.41-.8,1.92a5,5,0,0,0-1.52,2.16c-.52,1.79.66,3.56,1.41,5.26a24.88,24.88,0,0,1,1.32,4.41c0-.71,1-1,1.65-.67a7.58,7.58,0,0,1,1.54,1.46c.87.84,2,.33,2.94,1.05,1.18.89,1.93,2.48,3.37,2.72,1.76.3,3-1.57,3.81-3.17,1.93,1,3.12,3.49,5.3,3.65a5.61,5.61,0,0,0,2.43-.56l4.79-1.89a2.28,2.28,0,0,1,3.57,1.62c.34.84.69,1.68,1,2.51a1.92,1.92,0,0,1,.2,1.09,1.67,1.67,0,0,1-.77.87,8.69,8.69,0,0,1-6.21,1.26,34.81,34.81,0,0,0,1.7,8.52c-1.63-.42-3.51.12-5-.51" transform="translate(0 -59.24)"/><path class="cls-7" d="M266.44,254.82a3.23,3.23,0,0,1-2.45,1.26,17,17,0,0,1-1.73-.33,1.6,1.6,0,0,0-1.58.53c-.41.62,0,1.45.37,2.09a2.47,2.47,0,0,0,1.26,1.25,11.73,11.73,0,0,0,1.33.07c.87.14,1.43,1,2,1.63s1.52,1.26,2.29.83c.5-.29.72-.92,1.21-1.23,1.2-.75,2.67.88,3.75.27,1.28-.74.81-2.83.28-4a10.77,10.77,0,0,0-2.55-3C268,251.66,268.38,252.51,266.44,254.82Z" transform="translate(0 -59.24)"/><path class="cls-7" d="M307,288.51c12.78-12.67,20.26-31.14,21.73-48.9,0-.49.08-1,.11-1.47-2.46-2.55-7.38-4.17-8.66.4-.51,0-.61-.33-1-.62-.61-.45-1.46.16-1.8.83-1.11,2.21-1.27,5-4.33,4.39-3.65-.71-1.17-2.27-2.36-4.29a4.4,4.4,0,0,0-.72-.71c-.87-.89-.75-2.32-.58-3.54a1.42,1.42,0,0,0,1.92-.8,2.25,2.25,0,0,1,.28-.84c.42-.49,1.27,0,1.47.58s0,1.27.18,1.9.81,1.24,1.36.91a1.12,1.12,0,0,0,.43-.66,3.49,3.49,0,0,0-.63-3.17,1.4,1.4,0,0,0-.06-2.72c-.89-.2-2.16.33-2.52-.51a2,2,0,0,1-.78,2c-2.36,1.71-7.66.18-7.14,5.21a17.8,17.8,0,0,1,.35,2.4,1.87,1.87,0,0,1-1.26,1.87c1.43,1.15.91,3.8,2.45,4.8a1.93,1.93,0,0,0,2.38-.25.86.86,0,0,1,.34-.26c.28-.09.54.17.83.24.49.1.93-.41,1.43-.44.71,0,1.1.81,1.23,1.51s.31,1.55,1,1.75c.23.06.48,0,.71.09a1.22,1.22,0,0,1,.78,1.13,3.5,3.5,0,0,1-.32,1.42c-.3.3-.82.12-1.11-.19a7.46,7.46,0,0,0-.78-1c-.19-.14-4.44.18-4.3-.12-.63,1.46-.95,4.66-3.15,3.84-.77-.28-1.57-.81-2.36-.57.38-1,.74-2.07,1.1-3.12-.33-.28-.82.11-1,.52s-.16.9-.5,1.16a1.36,1.36,0,0,1-.87.17l-2.94-.06c-1.06,0-2.29,0-2.95.87s-.32,2.39.48,3.3a.78.78,0,0,1,0,1.38,4.42,4.42,0,0,0-1.45,3.73,2.88,2.88,0,0,0,2.87,2.46c.53-.05,1.19-.23,1.5.2.18.26.18.66.46.79s.66-.29.92-.58a1.59,1.59,0,0,1,1.94-.32c.31.19,1.3,3.21,1,3.65-.59,1-3.37.61-4.46.65a1.6,1.6,0,0,0-1.17.38c-.43.5-.08,1.29.4,1.73s1.12.8,1.36,1.41a4.22,4.22,0,0,1-.6,3.27c-.28.24-.63.36-.91.6a2.23,2.23,0,0,0-.45,2.3c.22.79.64,1.53.8,2.34.32,1.73-.63,3.61.06,5.22.33.79,1.36,1.41,2,.86s.55-1.6,1.28-1.68,1.57,1.68,2.15,2,1.38-.17,2.23.44C306.1,286.88,306.24,288,307,288.51Z" transform="translate(0 -59.24)"/><path class="cls-7" d="M198.42,180.21c.72-.92,1.18-2,2.53-2.21,1.84-.32,2.53.71,1.73,2.46a.71.71,0,0,0-.11.49c.12.53.92.22,1.37-.09a3.69,3.69,0,0,1,3.53-.17c.27.12.77-4.92.5-5.5-.92-2-5.17-1.08-4.3-3.28,1.6,0,3.23.17,4.82.29l.27-2.31c-.07.58,2.9.46,3.24.29,1.31-.67.95-3.05,3.3-2.66,3,.49,3.14,6.33-.24,5.37a15.23,15.23,0,0,0-1.2,5.66l-1.84,0a1.66,1.66,0,0,0-.22,1.48,4.56,4.56,0,0,0,5.07.05c1,.74,2.33,0,3.32-.67,1.39,2.24,5.38,1.92,6.4-.5s-1.52-5.51-4.1-4.95a5.9,5.9,0,0,0-1.25-3.39,7.69,7.69,0,0,0,7.34-5.09c.52-1.52.64-3.36,1.92-4.33.57-.43,1.29-.61,1.89-1,1.33-.89,1.72-2.65,1.93-4.24q.21-1.6.3-3.21a81.39,81.39,0,0,0-48.18,26.79,3.2,3.2,0,0,0,.12,1.66,3.51,3.51,0,0,0,2.55,1.58c3.9,1,6.39.8,9.09-2.23A2.75,2.75,0,0,0,198.42,180.21Z" transform="translate(0 -59.24)"/><g class="cls-8"><path class="cls-9" d="M186.82,252.74c-.27,1.51-2.19,2.06-3.74,2.25l-7,.87c-1.1-2.89-4.52-2.92-6.92-1.79A81.31,81.31,0,0,0,241,313.93q4,.33,8,.27a1.37,1.37,0,0,0,.13-.2c1.22-2.13-.54-4-1.48-5.76-.21-.4-2.21-5.43-1.55-5.44a21.89,21.89,0,0,1-6.33-.82.67.67,0,0,1-.4-.25c-.2-.33.27-.65.64-.74,1-.22,1.95-.28,2.89-.56a3.31,3.31,0,0,0,2.24-1.77c.37-.91.09-2,.3-2.93a4.08,4.08,0,0,1,2.31-2.63,13.37,13.37,0,0,1,3.35-.89c-2.45-1.34-.66-4.13-2.59-6-.62-.6-1.52-1.33-1.14-2.1s1.66-.72,1.82-1.52c.11-.56-.48-1-1-1.15a6.3,6.3,0,0,1-1.67-.36A1.5,1.5,0,0,1,246,279c.42-.59,1.2-.77,1.84-1.11s1.21-1.13.83-1.74a1.2,1.2,0,0,0-.37-.34c-1-.65-2.41-.11-3.42.57s-2,1.54-3.27,1.53a1,1,0,0,1,.4-1.39,1.62,1.62,0,0,0,.49-.25c.29-.29.08-.77-.12-1.13a7.33,7.33,0,0,1-.56-5.58l7.44.14c.06-.56.12-.89.72-1.06-1.67-2-3.48-3.84-5-6a1.53,1.53,0,0,0-.66-.65,4.54,4.54,0,0,0-1,0c-1.07-.15-1.24-1.62-1.13-2.7-.16-.32-.68-.18-.88.12s-.25.69-.49,1a1.37,1.37,0,0,1-1.5.16,3.58,3.58,0,0,1-1.89-4.64,1.07,1.07,0,0,1,.4-.51c.43-.24.94.06,1.42.14,1.9.34,1.61-1.76,1.16-2.75-.62-1.34-2.47-2.21-3.81-2.56-1.57-.4-12-2.4-10.32-5.81a1.59,1.59,0,0,1,.81-.68,22.6,22.6,0,0,1,3.2-.61c1-.3,2.06-1.39,1.6-2.37-.18-.4-.56-.67-.77-1-.59-1.07.32-2.45-.1-3.59a10.22,10.22,0,0,0-.92-1.4c-.28-.48-.33-1.21.15-1.5s1.27.16,1.84-.1a1,1,0,0,0,0-1.62,1.69,1.69,0,0,0-1.85.14,2.18,2.18,0,0,1-.89.49c-.61.08-1.07-.53-1.38-1.06l-1.49-2.53a1.43,1.43,0,0,0-1.18,1.05c-.19.52-.23,1.1-.44,1.62-1.06,2.51-4.87,2.21-4.38,5.64a1.64,1.64,0,0,1,1.66,2c-.4,1.21-2.22,1.88-2,3.13.09.44.44.79.51,1.23.19,1.21-1.68,1.66-2.49,1.93-2.67.92-2.85-.83-5.16-.94-1.06,0-2,.67-3.06.78s-1.93-.3-2.91-.24c-2.67.15-1.33,3.78-1.14,5.35-1.44-1-3.36.16-4.5,1.45-1.76,2-1.59,1.64-3.92,1.72a1.72,1.72,0,0,0-1.51.89c-.43,1,.49,2,.52,3.1,0,.52-.19,1-.15,1.53.13,1.34,1.72,1.93,2.68,2.87a3.67,3.67,0,0,1,1,3.24,7.85,7.85,0,0,1-2-.15l-1.21-2.33a4.85,4.85,0,0,0-1.36-1.85,4.44,4.44,0,0,1-1-.78c-.5-.7-.09-1.66,0-2.51.29-2.07-.75-5.55-1.26-7.6s-2-3-2.52-5.07a.63.63,0,0,0-.91-.29,1.38,1.38,0,0,0-.57.91,3.72,3.72,0,0,0,.22,2.5c-.47-1-3,1.66-3.2,2.17-.26.84.3,2,.27,2.89-.05,2.15-.57,3.36-2.79,1.78-.85-.61-1.94-1.32-2.84-.79a1.35,1.35,0,0,1-.75,1.52,2.8,2.8,0,0,1-1.81.13,1.77,1.77,0,0,1-1.09-.53,3.51,3.51,0,0,0-.4-.53c-.57-.44-1.29.33-1.6,1" transform="translate(0 -59.24)"/><path class="cls-9" d="M285,188.82c.45.71,0,1.62-.54,2.28s-1.11,1.44-.89,2.24l2.9.27a.51.51,0,0,1,.57.71c-.07.62-.15,1.24-.22,1.86-.61.48-1.2-1-2-.87-.33.06-.5.42-.69.71-1.56,2.46-4.3.62-5.76-.66-1.7-1.48-4.16-1.58-6.41-1.6a3,3,0,0,0-2.28.6c-.56.56-.59,1.44-.87,2.19-.49,1.29-1.73,2.14-2.44,3.34-2.46,4.17,2,7.38,5.73,6.24,1.95-.59,1.61-.93,3.6-.35.83.23,1.85,0,2.36.95a1.55,1.55,0,0,1-1.35,2.26,6.68,6.68,0,0,1-3.21-.37c.38,1.32,0,2.82-.14,4.22a1.84,1.84,0,0,0-2,2.46c.63,0,1.49.25,1.44.88a1.13,1.13,0,0,1-.22.5c-.45.64-1,1.19-1.39,1.86-.59,1-.58,4.15-2.07,4.53-.26.06-.54,0-.8.12a1.2,1.2,0,0,0-.73,1.39,1.65,1.65,0,0,0,1.18,1.15c.37.1.77.09,1.13.21,1.92.67.23,2.57.69,3.51a17.32,17.32,0,0,0,3.84,2.55,4.55,4.55,0,0,0-2.17,3.42c0,1.56,1.15,2.32,2.63,2.78s3.48.66,4.61,1.09c.61.24,1.35.46,1.86.05s.5-1.69,1.24-2a2.16,2.16,0,0,1,.76-.12,2.88,2.88,0,0,0,2.45-3.23c.35-.45,1-.41,1.61-.4s1.3-.17,1.38-.74-.74-1-1.4-1.05a7.16,7.16,0,0,0-2,.16A2.4,2.4,0,0,1,284,232a2,2,0,0,1-.78-.81,4.46,4.46,0,0,1-.82-2.58,1.89,1.89,0,0,1,1.73-1.79,3.62,3.62,0,0,0,.73,0c.63-.1.9-.86.86-1.49a5.69,5.69,0,0,1-.08-1.88c.17-.61,1-1.06,1.44-.59.35-.81.58-2-.21-2.37a2.3,2.3,0,0,0-.83-.14c-1.74-.17-4.09-2.52-2.15-3.86,1.27-.88,3.32,1,4.43-.71.54-.8.21-2,.76-2.75.32-.23.7.24.77.63a3.7,3.7,0,0,1-1.21,3.42c1,.57,2.52-.08,3.19.84s-.32,2.48.55,3.18a1.83,1.83,0,0,0,.89.31c1.57.23,4.49,0,4.58,2.2a3.64,3.64,0,0,0,.05.81c.24.79,1.32.86,2.14.78.42-.8-.13-1.75-.5-2.58s-.33-2.11.55-2.32c.64-.15,1.38.39,1.91,0,.25-.17.36-.5.63-.64.65-.35,1.19.65,1.89.87,1,.31,1.69-.95,1.69-2s-.25-2.15.4-2.92c.21-.24.49-.41.72-.63a4.21,4.21,0,0,0,.94-2.73c.16-1.56,6.33,2.48,6.72,2.55,3,.49,4.78-2.45,6.81-4.06a18.12,18.12,0,0,1,3.54-2,82,82,0,0,0-58.85-55,25.19,25.19,0,0,0-3.78-.73c.38,1.89,1.55,4.87.28,6.66-1.61,2.28-5,.29-6.27,3,0,.68,1.1.57,1.62,1a2.32,2.32,0,0,1,.51,1c.15.36.49.71.85.6.42.63-.24,1.41-.8,1.92a5,5,0,0,0-1.52,2.16c-.52,1.79.66,3.56,1.41,5.26a24.88,24.88,0,0,1,1.32,4.41c0-.71,1-1,1.65-.67a7.58,7.58,0,0,1,1.54,1.46c.87.84,2,.33,2.94,1.05,1.18.89,1.93,2.48,3.37,2.72,1.76.3,3-1.57,3.81-3.17,1.93,1,3.12,3.49,5.3,3.65a5.61,5.61,0,0,0,2.43-.56l4.79-1.89a2.28,2.28,0,0,1,3.57,1.62c.34.84.69,1.68,1,2.51a1.92,1.92,0,0,1,.2,1.09,1.67,1.67,0,0,1-.77.87,8.69,8.69,0,0,1-6.21,1.26,34.81,34.81,0,0,0,1.7,8.52c-1.63-.42-3.51.12-5-.51" transform="translate(0 -59.24)"/><path class="cls-9" d="M266.44,254.82a3.23,3.23,0,0,1-2.45,1.26,17,17,0,0,1-1.73-.33,1.6,1.6,0,0,0-1.58.53c-.41.62,0,1.45.37,2.09a2.47,2.47,0,0,0,1.26,1.25,11.73,11.73,0,0,0,1.33.07c.87.14,1.43,1,2,1.63s1.52,1.26,2.29.83c.5-.29.72-.92,1.21-1.23,1.2-.75,2.67.88,3.75.27,1.28-.74.81-2.83.28-4a10.77,10.77,0,0,0-2.55-3C268,251.66,268.38,252.51,266.44,254.82Z" transform="translate(0 -59.24)"/><path class="cls-9" d="M307,288.51c12.78-12.67,20.26-31.14,21.73-48.9,0-.49.08-1,.11-1.47-2.46-2.55-7.38-4.17-8.66.4-.51,0-.61-.33-1-.62-.61-.45-1.46.16-1.8.83-1.11,2.21-1.27,5-4.33,4.39-3.65-.71-1.17-2.27-2.36-4.29a4.4,4.4,0,0,0-.72-.71c-.87-.89-.75-2.32-.58-3.54a1.42,1.42,0,0,0,1.92-.8,2.25,2.25,0,0,1,.28-.84c.42-.49,1.27,0,1.47.58s0,1.27.18,1.9.81,1.24,1.36.91a1.12,1.12,0,0,0,.43-.66,3.49,3.49,0,0,0-.63-3.17,1.4,1.4,0,0,0-.06-2.72c-.89-.2-2.16.33-2.52-.51a2,2,0,0,1-.78,2c-2.36,1.71-7.66.18-7.14,5.21a17.8,17.8,0,0,1,.35,2.4,1.87,1.87,0,0,1-1.26,1.87c1.43,1.15.91,3.8,2.45,4.8a1.93,1.93,0,0,0,2.38-.25.86.86,0,0,1,.34-.26c.28-.09.54.17.83.24.49.1.93-.41,1.43-.44.71,0,1.1.81,1.23,1.51s.31,1.55,1,1.75c.23.06.48,0,.71.09a1.22,1.22,0,0,1,.78,1.13,3.5,3.5,0,0,1-.32,1.42c-.3.3-.82.12-1.11-.19a7.46,7.46,0,0,0-.78-1c-.19-.14-4.44.18-4.3-.12-.63,1.46-.95,4.66-3.15,3.84-.77-.28-1.57-.81-2.36-.57.38-1,.74-2.07,1.1-3.12-.33-.28-.82.11-1,.52s-.16.9-.5,1.16a1.36,1.36,0,0,1-.87.17l-2.94-.06c-1.06,0-2.29,0-2.95.87s-.32,2.39.48,3.3a.78.78,0,0,1,0,1.38,4.42,4.42,0,0,0-1.45,3.73,2.88,2.88,0,0,0,2.87,2.46c.53-.05,1.19-.23,1.5.2.18.26.18.66.46.79s.66-.29.92-.58a1.59,1.59,0,0,1,1.94-.32c.31.19,1.3,3.21,1,3.65-.59,1-3.37.61-4.46.65a1.6,1.6,0,0,0-1.17.38c-.43.5-.08,1.29.4,1.73s1.12.8,1.36,1.41a4.22,4.22,0,0,1-.6,3.27c-.28.24-.63.36-.91.6a2.23,2.23,0,0,0-.45,2.3c.22.79.64,1.53.8,2.34.32,1.73-.63,3.61.06,5.22.33.79,1.36,1.41,2,.86s.55-1.6,1.28-1.68,1.57,1.68,2.15,2,1.38-.17,2.23.44C306.1,286.88,306.24,288,307,288.51Z" transform="translate(0 -59.24)"/><path class="cls-9" d="M198.42,180.21c.72-.92,1.18-2,2.53-2.21,1.84-.32,2.53.71,1.73,2.46a.71.71,0,0,0-.11.49c.12.53.92.22,1.37-.09a3.69,3.69,0,0,1,3.53-.17c.27.12.77-4.92.5-5.5-.92-2-5.17-1.08-4.3-3.28,1.6,0,3.23.17,4.82.29l.27-2.31c-.07.58,2.9.46,3.24.29,1.31-.67.95-3.05,3.3-2.66,3,.49,3.14,6.33-.24,5.37a15.23,15.23,0,0,0-1.2,5.66l-1.84,0a1.66,1.66,0,0,0-.22,1.48,4.56,4.56,0,0,0,5.07.05c1,.74,2.33,0,3.32-.67,1.39,2.24,5.38,1.92,6.4-.5s-1.52-5.51-4.1-4.95a5.9,5.9,0,0,0-1.25-3.39,7.69,7.69,0,0,0,7.34-5.09c.52-1.52.64-3.36,1.92-4.33.57-.43,1.29-.61,1.89-1,1.33-.89,1.72-2.65,1.93-4.24q.21-1.6.3-3.21a81.39,81.39,0,0,0-48.18,26.79,3.2,3.2,0,0,0,.12,1.66,3.51,3.51,0,0,0,2.55,1.58c3.9,1,6.39.8,9.09-2.23A2.75,2.75,0,0,0,198.42,180.21Z" transform="translate(0 -59.24)"/></g><path class="cls-4" d="M50.23,148.09a11.92,11.92,0,1,0,11.91-11.92A11.9,11.9,0,0,0,50.23,148.09Z" transform="translate(0 -59.24)"/><circle class="cls-10" cx="62.14" cy="148.09" r="11.23" transform="translate(-22.92 -47.38) rotate(-9.22)"/><path class="cls-4" d="M55.47,147.9a1.8,1.8,0,0,0,1.38,1.66,2.55,2.55,0,0,0,0,1.67c.33.91,2.17.91,2.17.91a.93.93,0,0,0,.83.56c0,.06.09.1.12.15l.26.36c.23,1.8.19,3.71-.7,4.68a0,0,0,0,1,0,0c-.77.08-1.54.19-2.31.31-.37.05-.73.12-1.09.19a11.88,11.88,0,0,0,13.28-.95H68.34l-2.09,0s0,0,0,0a2.42,2.42,0,0,1-2.16-1.58,3.58,3.58,0,0,1-.15-1.24,4,4,0,0,0,1-.32,4.09,4.09,0,0,0,2-2.22,2.83,2.83,0,0,0,.14-.41,10.47,10.47,0,0,0,.26-3.55,1.67,1.67,0,0,0,.81-1.15,1.21,1.21,0,0,0-.84-1.49,1.59,1.59,0,0,0,1.22-1.67,1.27,1.27,0,0,0-1.22-1.48s.43-.62-.41-1.79a1.5,1.5,0,0,0-2-.45A2.35,2.35,0,0,0,62.54,139a2.55,2.55,0,0,0-1.82,1.2s0-.85-1.65-.38a2.24,2.24,0,0,0-1.45,2.38,1.21,1.21,0,0,0-1.68.63c-.57,1.19.67,3.27.67,3.27A1.63,1.63,0,0,0,55.47,147.9Z" transform="translate(0 -59.24)"/><path class="cls-11" d="M50.23,148.09a11.92,11.92,0,1,0,11.91-11.92A11.9,11.9,0,0,0,50.23,148.09Z" transform="translate(0 -59.24)"/><circle class="cls-4" cx="56.11" cy="298.03" r="10.59"/><path class="cls-10" d="M66.1,357.28a10,10,0,1,1-10-10A10,10,0,0,1,66.1,357.28Z" transform="translate(0 -59.24)"/><path class="cls-4" d="M64,363.39a10,10,0,0,1-13.51,2.13c.33-.76.54-1.21.54-1.21a29.65,29.65,0,0,1,3.8-.93,3,3,0,0,1,1.31-.65,3.87,3.87,0,0,0-.07-2.28,3.88,3.88,0,0,1-1-1,3,3,0,0,1-.54-.53c-.31-.13-2.43-1.12-2.54-4.6a3,3,0,0,1,0-.42c-.66-.07-1.35.14-.87,1.48.82,2.3,0,3.52,0,3.52a8.59,8.59,0,0,0-.08-1.53c0,2.39-1.29,2.54-1.29,2.54s.82-.86-.39-3.52-.86-6.25,1.45-6.41a3,3,0,0,1,2.55,1.08,3.85,3.85,0,0,1,4.52-.53s2.07-.51,2.66,0c.12.12,0,.39-.22.75A2.74,2.74,0,0,1,61.43,353a4.11,4.11,0,0,1-.57,3.24c.28,2.63-.17,4.6-2.26,4.78,0,.07,0,.13,0,.19s0,.19,0,.27a2.92,2.92,0,0,0,.15,1.12,5.84,5.84,0,0,1,.87.24c1.87,0,4,.2,4,.2h0A2.22,2.22,0,0,1,64,363.39Z" transform="translate(0 -59.24)"/><circle class="cls-11" cx="56.11" cy="298.03" r="10.59"/><circle class="cls-4" cx="443.89" cy="274.56" r="11.69" transform="translate(-64.13 335.05) rotate(-45)"/><path class="cls-10" d="M454.91,274.56a11,11,0,1,1-11-11A11,11,0,0,1,454.91,274.56Z" transform="translate(0 -59.24)"/><path class="cls-4" d="M453.06,280.67a11,11,0,0,1-15.92,2.6,6.59,6.59,0,0,1,.06-1.81c.14-1.35,1.69-2.43,1.67-3.38s-1.6-2.16-.59-2.7,1.23-2.64.42-3.82a2.57,2.57,0,0,1,.06-3.58,4.67,4.67,0,0,1,3-1.63,5.53,5.53,0,0,1,3.26-.47,6.92,6.92,0,0,1,3.24,1.1,4.8,4.8,0,0,1,1.69,2.08,6.55,6.55,0,0,1,.34,4.77c-.55,1.58,1.9,1.48,2,2.93s-1.15,1.53-.93,2.5C451.43,279.7,452.28,280.12,453.06,280.67Z" transform="translate(0 -59.24)"/><circle class="cls-11" cx="443.89" cy="274.56" r="11.69" transform="translate(-64.13 335.05) rotate(-45)"/><rect class="cls-4" x="300.29" y="177.27" width="97.22" height="1" transform="translate(-41.92 94.2) rotate(-23.44)"/><rect class="cls-4" x="199.61" y="101.65" width="1" height="72.46" transform="translate(-42.61 66.72) rotate(-31.76)"/><rect class="cls-4" x="93.46" y="281.19" width="101.09" height="1" transform="translate(-54.7 -23.73) rotate(-11.83)"/><rect class="cls-12" x="300.29" y="177.27" width="97.22" height="1" transform="translate(-41.92 94.2) rotate(-23.44)"/><rect class="cls-4" x="343.69" y="247.08" width="1" height="107.23" transform="translate(-107.13 169.38) rotate(-32.07)"/><rect class="cls-12" x="343.69" y="247.08" width="1" height="107.23" transform="translate(-107.13 169.38) rotate(-32.07)"/><rect class="cls-12" x="199.61" y="101.65" width="1" height="72.46" transform="translate(-42.61 66.72) rotate(-31.76)"/><rect class="cls-12" x="93.46" y="281.19" width="101.09" height="1" transform="translate(-54.7 -23.73) rotate(-11.83)"/><path class="cls-4" d="M190.88,383.29,94,292.22l13.7-103.59.11-.11,73-81.92.19,0L313.25,88.28,394,158.22l0,.27L373.12,346.55l-.36.07ZM95.06,291.85l96.13,90.36,181-36.5L393,158.64l-80-69.31L181.3,107.54l-72.65,81.53Z" transform="translate(0 -59.24)"/><path class="cls-12" d="M190.88,383.29,94,292.22l13.7-103.59.11-.11,73-81.92.19,0L313.25,88.28,394,158.22l0,.27L373.12,346.55l-.36.07ZM95.06,291.85l96.13,90.36,181-36.5L393,158.64l-80-69.31L181.3,107.54l-72.65,81.53Z" transform="translate(0 -59.24)"/><polygon class="cls-4" points="220.68 109.44 219.18 118.19 217.68 109.44 220.68 109.44"/><path class="cls-4" d="M223.52,168.68a4.34,4.34,0,1,1-4.34-4.34A4.34,4.34,0,0,1,223.52,168.68Z" transform="translate(0 -59.24)"/><path class="cls-10" d="M219.61,165.62c.48.63.1,1.74-.86,2.46s-2.11.8-2.6.17-.1-1.74.85-2.47S219.12,165,219.61,165.62Z" transform="translate(0 -59.24)"/><polygon class="cls-4" points="305.8 137.87 304.3 146.62 302.8 137.87 305.8 137.87"/><circle class="cls-4" cx="304.3" cy="137.87" r="4.34"/><path class="cls-10" d="M304.72,194.05c.49.63.1,1.73-.85,2.46s-2.12.8-2.6.17-.1-1.74.85-2.47S304.24,193.41,304.72,194.05Z" transform="translate(0 -59.24)"/><polygon class="cls-4" points="194.98 211.58 193.48 220.33 191.98 211.58 194.98 211.58"/><circle class="cls-4" cx="193.48" cy="211.58" r="4.34"/><path class="cls-10" d="M193.91,267.76c.48.63.1,1.74-.85,2.46s-2.12.8-2.61.17-.1-1.74.86-2.46S193.42,267.12,193.91,267.76Z" transform="translate(0 -59.24)"/><polygon class="cls-4" points="317.23 196.02 315.73 204.78 314.23 196.02 317.23 196.02"/><path class="cls-4" d="M320.07,255.26a4.34,4.34,0,1,1-4.34-4.34A4.34,4.34,0,0,1,320.07,255.26Z" transform="translate(0 -59.24)"/><path class="cls-10" d="M316.15,252.2c.49.64.11,1.74-.85,2.47s-2.12.8-2.6.16-.1-1.73.85-2.46S315.67,251.57,316.15,252.2Z" transform="translate(0 -59.24)"/><path class="cls-4" d="M427.08,160.52a33.24,33.24,0,0,1-6.65,20,34.11,34.11,0,0,1-10.58,9.2A33.3,33.3,0,0,1,380,190.86c-.39-.17-.78-.35-1.16-.55v0a31.59,31.59,0,0,1-6.54-4.3,33.31,33.31,0,0,1-11.85-25.47,33.34,33.34,0,1,1,66.68,0Z" transform="translate(0 -59.24)"/><circle class="cls-11" cx="393.74" cy="160.51" r="32.37" transform="translate(1.82 266.19) rotate(-45)"/><path class="cls-13" d="M372.25,175.64l3.13-13s2-1.58,2.1-2.73-1.22-7.94-2.08-8.35-5.94,1.36-6.18,2.81,1.75,7.16,2.15,7.62l-5.13,15.09Z" transform="translate(0 -59.24)"/><path class="cls-4" d="M374.76,168.2l-1.88,17.05a32,32,0,0,1-7.24-8.68c1.16-4.08,2.33-7.76,2.88-9.4.18-.59.29-.92.29-.92l1.08.14,4.45.56.55.07Z" transform="translate(0 -59.24)"/><path class="cls-4" d="M383.26,179.19,380.36,190a11.45,11.45,0,0,1-1.12-.53h0a31.2,31.2,0,0,1-6.34-4.18c.23-.52,6.17-13.93,8.39-13.78Z" transform="translate(0 -59.24)"/><path class="cls-14" d="M374.76,168.2l-1.88,17.05a32,32,0,0,1-7.24-8.68c1.16-4.08,2.33-7.76,2.88-9.4.18-.59.29-.92.29-.92l1.08.14,4.45.56.55.07Z" transform="translate(0 -59.24)"/><path class="cls-14" d="M383.26,179.19,380.36,190a11.45,11.45,0,0,1-1.12-.53h0a31.2,31.2,0,0,1-6.34-4.18c.23-.52,6.17-13.93,8.39-13.78Z" transform="translate(0 -59.24)"/><polygon class="cls-4" points="376.15 106.72 375.13 109.02 368.03 107.84 368.19 106.53 376.15 106.72"/><path class="cls-15" d="M413.44,149.38c-.83,3.17,3.7,11.92,1.86,27.84s-19.29,14.95-27.14,9.64-6.49-34.1-3.79-39.78S413.44,149.38,413.44,149.38Z" transform="translate(0 -59.24)"/><path class="cls-4" d="M418.05,175.12c-.17.47-.31.92-.47,1.38s-.32.9-.47,1.34c-.29.88-.57,1.74-.85,2.57-.56,1.66-1.06,3.24-1.54,4.73a30.48,30.48,0,0,1-5.34,3.71,32.3,32.3,0,0,1-29,1.12,11.45,11.45,0,0,1-1.12-.53c0-.32,0-.65,0-.95s0-.63,0-.93c0-.92.05-1.77.07-2.58,0-.53.05-1.06.06-1.55,0-.25,0-.48,0-.73.05-.89.09-1.7.15-2.45,0-.25,0-.49.05-.72,0-.71.11-1.34.15-1.93.37-3.7.86-5.16,1.18-5.75a1.18,1.18,0,0,1,.17-.25.44.44,0,0,1,.14-.13l1.31-.11c2.16-.18,6.64-.5,10.69-.47h.23c.54,0,1.07,0,1.61.07,2.09.11,4.18.3,6.24.55l2.3.32c.83.12,1.66.26,2.49.4.11,0,.24,0,.35.06a83.24,83.24,0,0,1,9.07,2.08c.83.23,1.66.47,2.48.74Z" transform="translate(0 -59.24)"/><path class="cls-14" d="M418,175.12v0c-.16.45-.32.9-.45,1.35s-.32.9-.47,1.34c-.29.88-.57,1.74-.85,2.57-.56,1.66-1.06,3.24-1.54,4.73a30.48,30.48,0,0,1-5.34,3.71,32.3,32.3,0,0,1-29,1.12,11.45,11.45,0,0,1-1.12-.53h0c0-.32,0-.64,0-.94s0-.63,0-.93c0-.92.05-1.77.07-2.58,0-.53.05-1.06.06-1.55,0-.25,0-.48,0-.73,0-.89.09-1.7.15-2.45,0-.25,0-.49.05-.72,0-.71.11-1.34.15-1.93.37-3.7.86-5.16,1.18-5.75a1.18,1.18,0,0,1,.17-.25.44.44,0,0,1,.14-.13l1.31-.11c2.16-.18,6.64-.5,10.69-.47h.23c.54,0,1.07,0,1.61.07,2.09.11,4.18.3,6.24.55l2.3.32c.83.12,1.66.26,2.49.4.11,0,.24,0,.35.06a83.24,83.24,0,0,1,9.07,2.08C416.39,174.61,417.22,174.85,418,175.12Z" transform="translate(0 -59.24)"/><path class="cls-6" d="M399.32,170c7.14.56,8,2.72,7.26,3.85s-10.44,10.58-13.35,16.92C393.23,190.8,382.74,168.73,399.32,170Z" transform="translate(0 -59.24)"/><path class="cls-13" d="M395.63,177.22c7.07-.9,9.2-3.92,9.2-3.92-4.49-4.23-.76-11.57-.76-11.57l-8.51,1.59a25.08,25.08,0,0,1,.33,3.59c.07,5.16-2.27,5.21-2.27,5.21C392.13,174.92,395.63,177.22,395.63,177.22Z" transform="translate(0 -59.24)"/><path class="cls-16" d="M395.56,163.32a25.08,25.08,0,0,1,.33,3.59c5.75,0,8.18-5.18,8.18-5.18Z" transform="translate(0 -59.24)"/><path class="cls-13" d="M400.26,139.53c-7.39-.4-10,3.43-10.95,11-1.2,9.49.54,16.37,9.9,14.84C411.92,163.32,412.55,140.2,400.26,139.53Z" transform="translate(0 -59.24)"/><path class="cls-17" d="M394.11,150.4a15.84,15.84,0,0,1-2.32,2.95,2,2,0,0,0,1.91.94Z" transform="translate(0 -59.24)"/><path class="cls-15" d="M398.67,150c0,.61.25,1.12.65,1.16s.77-.44.82-1-.24-1.12-.65-1.15S398.72,149.43,398.67,150Z" transform="translate(0 -59.24)"/><path class="cls-15" d="M399.66,149l-1.28-.62S399,149.58,399.66,149Z" transform="translate(0 -59.24)"/><path class="cls-15" d="M391.14,149.32c-.05.61.24,1.13.65,1.16s.77-.44.82-1-.25-1.13-.65-1.16S391.19,148.72,391.14,149.32Z" transform="translate(0 -59.24)"/><path class="cls-15" d="M392.13,148.32l-1.28-.62S391.42,148.87,392.13,148.32Z" transform="translate(0 -59.24)"/><path class="cls-15" d="M402.18,146.57a.34.34,0,0,1-.28-.14,3.53,3.53,0,0,0-2.85-1.15.35.35,0,0,1-.05-.69,4.18,4.18,0,0,1,3.45,1.44.35.35,0,0,1-.07.48A.36.36,0,0,1,402.18,146.57Z" transform="translate(0 -59.24)"/><path class="cls-15" d="M390.69,145.12a.34.34,0,0,1-.18-.64,3.82,3.82,0,0,1,3.3-.47.35.35,0,0,1,.17.46.34.34,0,0,1-.44.18,3.09,3.09,0,0,0-2.68.42A.34.34,0,0,1,390.69,145.12Z" transform="translate(0 -59.24)"/><path class="cls-15" d="M394.62,157.26a18.24,18.24,0,0,1,.72,2.61h.48c2.16-.1,3.13-.86,3.55-1.68a2.79,2.79,0,0,0,.29-1.29,2.68,2.68,0,0,0-.1-.75,10.09,10.09,0,0,1-4.21,1.07Z" transform="translate(0 -59.24)"/><path class="cls-6" d="M395.35,157.21l.24.77c2-.1,3.46-.44,4.07-1.09a2.68,2.68,0,0,0-.1-.75A10.09,10.09,0,0,1,395.35,157.21Z" transform="translate(0 -59.24)"/><path class="cls-17" d="M395.82,159.86c2.16-.1,3.13-.86,3.55-1.68a6.93,6.93,0,0,0-2.38.59A2.6,2.6,0,0,0,395.82,159.86Z" transform="translate(0 -59.24)"/><path class="cls-15" d="M407.66,152.44s-3.12-6.27-2.34-10.93c0,0-14.33-6.79-15.87,8.05,0,0-.71-13.29,12-12.89s11.66,19,4.79,24.18C406.26,160.85,409.6,156.36,407.66,152.44Z" transform="translate(0 -59.24)"/><path class="cls-13" d="M406.37,153.94a3.26,3.26,0,0,1,3.66-2.78c2.27.38,3.11,5.14-2.65,6C406.55,157.24,406.13,156.41,406.37,153.94Z" transform="translate(0 -59.24)"/><path class="cls-15" d="M403.35,140.77a28,28,0,0,0,4.31,17.41C411.82,164.46,407,170,407,170s7.39-4.7,7.65-11.79c0,0,6.1-17-6.57-21.52,0,0-.05-3.81-8.31-3.09s-14.91,7.8-16.17,16.83,3.44,19.08,3.44,19.08S382.08,137.51,403.35,140.77Z" transform="translate(0 -59.24)"/><path class="cls-15" d="M403.83,140.92a21.07,21.07,0,0,0-.62,6.56,32.4,32.4,0,0,0,1.06,6.62,27.8,27.8,0,0,0,2.48,6.25,18.19,18.19,0,0,0,4.18,5.25,18.09,18.09,0,0,1-4.4-5.13,28.16,28.16,0,0,1-2.74-6.23,33.93,33.93,0,0,1-1.33-6.71,22.12,22.12,0,0,1,.41-6.91Z" transform="translate(0 -59.24)"/><path class="cls-4" d="M419.65,179.92a31.27,31.27,0,0,1-4.93,5.22,30.48,30.48,0,0,1-5.34,3.71c.11-.43.25-.85.4-1.28a33,33,0,0,1,5.33-9.14,35,35,0,0,1,2.92-3.28l0,0C418.82,175.76,419.32,177.5,419.65,179.92Z" transform="translate(0 -59.24)"/><path class="cls-14" d="M419.65,179.92a31.27,31.27,0,0,1-4.93,5.22,30.48,30.48,0,0,1-5.34,3.71c.11-.43.25-.85.4-1.28a33,33,0,0,1,5.33-9.14,35,35,0,0,1,2.92-3.28l0,0C418.82,175.76,419.32,177.5,419.65,179.92Z" transform="translate(0 -59.24)"/><circle class="cls-4" cx="312.1" cy="31.57" r="18.2"/><path class="cls-10" d="M329.25,90.81A17.16,17.16,0,1,1,312.1,73.65,17.1,17.1,0,0,1,329.25,90.81Z" transform="translate(0 -59.24)"/><path class="cls-4" d="M324.67,102.48a17.15,17.15,0,0,1-25.8-.74,1.31,1.31,0,0,1,.28-.09,3.68,3.68,0,0,1,.82-.86.71.71,0,0,1,0-.14l.3-.05a3.53,3.53,0,0,1,1.88-.49,3.44,3.44,0,0,1,.55,0l1.07-.2s0,.11,0,.29c1.36.11,3.43.24,5.78.4a3,3,0,0,0,1.06-1.51,5.14,5.14,0,0,0,.21-2,6,6,0,0,1-2.4-.64,6.15,6.15,0,0,1-3-3.37,5.61,5.61,0,0,1-.18-.62,15.44,15.44,0,0,1-.09-6.48h0a1.2,1.2,0,0,1-.19,0,.18.18,0,0,1-.15-.19s0,0,0,0a.2.2,0,0,1,.23-.16h.05a13.12,13.12,0,0,1,.29-3.88,4.57,4.57,0,0,1,0-3.91c.64-.92.14-.42,1.82-.57s.67-1.63,1.74-1.65.85.66,2.16,1.15.83-1,2.33-1.13,1.7,1,2.77,1.28a5.1,5.1,0,0,0,2.07,0c.78,0,.85,2.28,1.18,2.7s.89-.21,1.6,1a1.08,1.08,0,0,1,.12.56c0,1.5-1.88,4.38-1.88,4.38-.09.66-.21,1.37-.39,2.13a1.94,1.94,0,0,1,.34,2.26,4.17,4.17,0,0,1-1.66,1.77,12.27,12.27,0,0,1-1.08,1.89c-.47,2.62-.7,5.71.19,7.66A58.15,58.15,0,0,1,324.67,102.48Z" transform="translate(0 -59.24)"/><circle class="cls-18" cx="312.1" cy="31.57" r="18.2"/><circle class="cls-4" cx="191.03" cy="381.16" r="18.2" transform="translate(-213.57 187.48) rotate(-45)"/><path class="cls-19" d="M208.19,381.16A17.16,17.16,0,1,1,191,364,17.07,17.07,0,0,1,208.19,381.16Z" transform="translate(0 -59.24)"/><path class="cls-4" d="M202.82,393.62a17.15,17.15,0,0,1-21.5,1.69c1.25-.18,2.56-.34,3.89-.47,1-2.25.77-5.83.22-8.85a15.11,15.11,0,0,1-1.23-2.18,4.78,4.78,0,0,1-1.92-2,2.27,2.27,0,0,1,.38-2.62,20,20,0,0,1-.55-4.13l-.08,0s-1.38-5.33,3.78-7.28,10.37,1.54,10.37,1.54,1.12-2.08,2.45-1.54c1.14.46.53,1.94.32,2.39a2.71,2.71,0,0,1,1.17-1c.91-.41,2.17.75-.66,3.58a3.93,3.93,0,0,1-1,.72,13.68,13.68,0,0,1,.08,3.86,17.83,17.83,0,0,1-.11,7.48,5.48,5.48,0,0,1-.22.72,7,7,0,0,1-3.42,3.89,6.88,6.88,0,0,1-2.77.74,6.56,6.56,0,0,0,.23,2.28,3.61,3.61,0,0,0,1.23,1.73c2.73-.19,5.11-.32,6.68-.45a2.82,2.82,0,0,0,0-.34l1.24.23A5,5,0,0,1,202.82,393.62Z" transform="translate(0 -59.24)"/><circle class="cls-18" cx="191.03" cy="381.16" r="18.2" transform="translate(-213.57 187.48) rotate(-45)"/><circle class="cls-4" cx="108.18" cy="188.85" r="18.2" transform="translate(-100.48 191.5) rotate(-76.72)"/><path class="cls-19" d="M125.34,188.85a17.16,17.16,0,1,1-17.16-17.15A17.1,17.1,0,0,1,125.34,188.85Z" transform="translate(0 -59.24)"/><path class="cls-4" d="M121,200.28a17.16,17.16,0,0,1-22.9,2.44l6.8-2.09c.13.14.25.3.38.46l.87-.16c.55-.1,1.09-.18,1.64-.26a5.14,5.14,0,0,0,.68-2.1c-.57,0-.94,0-.94,0,.19-.67-.82-2.08-.82-2.08l-.34,1.86a3.6,3.6,0,0,1-1.14-.4c-.46-.29-1-2.32-1-2.32s-1.18,2-1.44,2.43-.94,0-.94,0a7,7,0,0,1,.11-3.48,1.18,1.18,0,0,0-1.2-1.72,6.17,6.17,0,0,1-.45,2,6,6,0,0,0-.46,2.54c0,.72.06,1.22-.45,1.22s-.58-.45-.52-1.22-.74-1.51-.28-2.14.11-2.35.11-2.35c-.28,1.2-1.6,1.15-1.82,2s.62,2.06.22,2.49-1.08,0-1.08,0,.57-.94.17-1.49-1-.82-.75-1.94.8-1.11.64-2.35-.75-1.16,0-1.62a6.07,6.07,0,0,0,1.71-3.57c0-.94-.4-3.1,1.2-3.87s2-1.35,1.71-3.36,1.25-1.87,3.2-1.47c0,0,1-1.54,1.88-1.25s1.6.11,1.79-.4,2.72-.46,3.1,0a2.73,2.73,0,0,0,2.55.45c.83-.34,3,1,3,1.94s-.06,1.43,1.12,2,1.4.79,1.91,2.84-.34,2.86.69,3.66.91,3.94,1,4.92,0,2.05,0,2.05l-.29.08c-.28.08-.51-1.06-.46-1.89s-1.73-2-1.88-2.07c0,.08.36.78.57,1.33a9.84,9.84,0,0,1,.23,3.06c-.06,1,1.08,1.51,1.08,1.51l-1.25.63s-1-2.08-.64-3.16a2.29,2.29,0,0,0-.62-2v2s-.34.73-.85,1.71.4,1.26.54,1.77-1.12.54-1.12.54l-.24-1.23-.43,1.23a6.66,6.66,0,0,1-2.47.76,4.18,4.18,0,0,0,.5,2l1.22-.06c.8,0,1.64,0,2.45,0h0C118.6,200.11,120,200.2,121,200.28Z" transform="translate(0 -59.24)"/><circle class="cls-18" cx="108.18" cy="188.85" r="18.2" transform="translate(-100.48 191.5) rotate(-76.72)"/><circle class="cls-4" cx="179.8" cy="46.33" r="30.52"/><path class="cls-11" d="M209.32,105.57a29.36,29.36,0,0,1-6.14,18,28.81,28.81,0,0,1-3.51,3.82,27.5,27.5,0,0,1-3.79,2.92.45.45,0,0,1-.17.11,27,27,0,0,1-3.28,1.84,29.5,29.5,0,0,1-35.1-7.55h0a29.52,29.52,0,1,1,52-19.12Z" transform="translate(0 -59.24)"/><g id="_Group_" data-name="&lt;Group&gt;"><path class="cls-20" d="M186.67,105.57c.65-1.44,1.11-.82,3,.63a4.78,4.78,0,0,1,2.17,4.3c0,1.54-.29,4.61-.29,4.61l4.88,5.47-2.21,3.33-5.67-6.4s-2.8-2.11-3.27-4.48S186.67,105.57,186.67,105.57Z" transform="translate(0 -59.24)"/><path class="cls-15" d="M186,103.93l4,7.18a.86.86,0,0,1-.11,1l-3.1,3.58a.88.88,0,0,1-1.42-.12l-3.58-5.9Z" transform="translate(0 -59.24)"/><polygon class="cls-21" points="185.8 45.46 189.33 52.1 185.97 56.06 182.36 50.19 185.8 45.46"/><path class="cls-4" d="M195.88,130.3c0,.15.05.29.07.43l-.24-.32a27,27,0,0,1-3.28,1.84c.26-2,.55-3.86.81-5.39s.44-2.55.6-3.36.25-1.28.27-1.36h0a3.9,3.9,0,0,1,1,.34c1.53.75,3,2.54,4.51,4.91A27.5,27.5,0,0,1,195.88,130.3Z" transform="translate(0 -59.24)"/><path class="cls-4" d="M196,130.73l-.24-.32a27,27,0,0,1-3.28,1.84,29.5,29.5,0,0,1-35.1-7.55c.51-.12,1-.23,1.55-.33l.16,0,.31-.06c1.35-.26,2.73-.49,4.11-.69h0l1.81-.25c.8-.11,1.6-.2,2.39-.29l.19,0c1.83-.21,3.66-.38,5.44-.51l1.74-.11h0l2.22-.14,2.16-.1.87,0,2.51-.07c2.63-.06,4.94-.06,6.78,0l1.22,0,1.76,0c1,0,1.52,0,1.52,0,.12.44.24.9.35,1.37h0c.51,2,1,4.33,1.42,6.78C195.91,130.45,195.93,130.59,196,130.73Z" transform="translate(0 -59.24)"/><path class="cls-16" d="M196,130.73l-.24-.32a27,27,0,0,1-3.28,1.84,29.5,29.5,0,0,1-35.1-7.55l-.72.15.71-.16,1.56-.32.16,0,.31-.06c1.35-.26,2.73-.49,4.11-.69h0l1.81-.25c.8-.11,1.6-.2,2.39-.29l.19,0c1.83-.21,3.66-.38,5.44-.51l1.73-.12,2.24-.13,2.16-.1.87,0,2.5-.08c2.64,0,5,0,6.79,0l1.22,0,1.74,0,1.54.06h0c.12.44.24.9.35,1.37h0c.51,2,1,4.33,1.42,6.78C195.91,130.45,195.93,130.59,196,130.73Z" transform="translate(0 -59.24)"/><path class="cls-20" d="M167.65,123c3.24,3,11.2,1.86,11.2,1.86s5-1.35,3.92-2.91c-2.92-.48-4.34-1.84-4.92-3.59a8.55,8.55,0,0,1-.3-3.34,16.6,16.6,0,0,1,.24-1.86L168,105.87C169.25,110.68,170.83,119.52,167.65,123Z" transform="translate(0 -59.24)"/><path class="cls-16" d="M170.23,110.5c.39,5.9,5.24,7.53,7.62,7.86a8.55,8.55,0,0,1-.3-3.34Z" transform="translate(0 -59.24)"/><path class="cls-15" d="M187.2,91.85s1.4,9.19-3.48,12.72S178.85,91,178.85,91Z" transform="translate(0 -59.24)"/><path class="cls-20" d="M169.57,111.87a8.33,8.33,0,0,0,9.57,3.23,9.25,9.25,0,0,0,5.3-4.32,8,8,0,0,0,.44-.88c2.4-5.61,3.16-15.43-2.77-19.11a9,9,0,0,0-13.8,6.81C167.58,104.16,166.84,108,169.57,111.87Z" transform="translate(0 -59.24)"/><path class="cls-15" d="M177.87,101.11c-.12.51.12,1,.47,1.06s.7-.33.79-.85-.12-1-.46-1.07S178,100.57,177.87,101.11Z" transform="translate(0 -59.24)"/><path class="cls-15" d="M183.86,102.13c-.12.52.12,1,.47,1.06s.7-.32.79-.85-.12-1-.46-1.07S184,101.63,183.86,102.13Z" transform="translate(0 -59.24)"/><path class="cls-22" d="M181.92,102.06a19.09,19.09,0,0,0,1.75,5,3.12,3.12,0,0,1-2.62,0Z" transform="translate(0 -59.24)"/><path class="cls-15" d="M176.35,98.85a.32.32,0,0,0,.32-.07,2.56,2.56,0,0,1,2.17-.7.31.31,0,0,0,.15-.61h0a3.13,3.13,0,0,0-2.75.85.31.31,0,0,0,0,.44h0A.57.57,0,0,0,176.35,98.85Z" transform="translate(0 -59.24)"/><path class="cls-15" d="M186.79,100.5a.29.29,0,0,0,.18,0,.31.31,0,0,0,.22-.39h0A3.15,3.15,0,0,0,185.25,98a.32.32,0,0,0-.39.21h0a.34.34,0,0,0,.21.4h0a2.55,2.55,0,0,1,1.52,1.71A.31.31,0,0,0,186.79,100.5Z" transform="translate(0 -59.24)"/><path class="cls-15" d="M174.47,90.3v2.93a2.17,2.17,0,0,0-1.41,2.58c.63,2.54-1.21,6.14-3.25,7.42,0,0,.07-1.06-.85-.92s-1.34,5.65.07,8.47c0,0-2.33-2.68-3.11-8.61-.72-5.49-.35-10,1-11.87Z" transform="translate(0 -59.24)"/><path class="cls-20" d="M164.56,102.45a6.27,6.27,0,0,0,3,3.74c1.94,1,3.39-.58,3.26-2.67-.14-1.85-1.29-4.68-3.44-4.84A2.8,2.8,0,0,0,164.56,102.45Z" transform="translate(0 -59.24)"/><path class="cls-15" d="M174.47,93.23s1.9,1.89,3.75.51c0,0,2.09,1.74,3.8.5A3.85,3.85,0,0,0,184.49,96,1.33,1.33,0,0,0,186,94.62s2.42,1.39,3.32.74-.49-3.25-.49-3.25,1.14-.61.4-2.7-4.11-1.61-4.11-1.61.13-2-2.23-4a2.29,2.29,0,0,0-3.76.49s-2.28-3.09-5.11-2.68-2.5,2.35-2.5,2.35-3.26-2-4.72,0,0,3,0,3-3.25,1.09-3.09,3.31,1.83,1.89,1.83,1.89-.93,1.06,1.18,2,4.1-1.3,4.1-1.3a1.44,1.44,0,0,0,.7,2.12C173.06,95.81,174.47,93.23,174.47,93.23Z" transform="translate(0 -59.24)"/><path class="cls-15" d="M180.91,109a18.88,18.88,0,0,0-1.85,2l-.41-.24c-1.88-1.09-2.39-2.21-2.39-3.13a2.79,2.79,0,0,1,.35-1.27,2.91,2.91,0,0,1,.43-.63,10.28,10.28,0,0,0,3.24,2.9C180.66,108.9,180.91,109,180.91,109Z" transform="translate(0 -59.24)"/><path class="cls-6" d="M180.28,108.66l-.56.57c-1.77-1-2.87-2-3.11-2.84a2.91,2.91,0,0,1,.43-.63A10.28,10.28,0,0,0,180.28,108.66Z" transform="translate(0 -59.24)"/><path class="cls-17" d="M178.65,110.79c-1.88-1.09-2.39-2.21-2.39-3.13a7,7,0,0,1,1.85,1.62A2.63,2.63,0,0,1,178.65,110.79Z" transform="translate(0 -59.24)"/><path class="cls-4" d="M178.85,124.86s-11.47-7.79-15.12-8.23-3,4.12-3,4.12-2.82,0-1.74,3.47,16.67,5.38,22.42,3.66,9.18-4.94,8.23-8-3.62-.43-3.62-.43-1.55-2.87-3.78-2.2S178.85,124.86,178.85,124.86Z" transform="translate(0 -59.24)"/><path class="cls-4" d="M203.18,123.56a28.81,28.81,0,0,1-3.51,3.82,27.5,27.5,0,0,1-3.79,2.92c0,.15.05.29.07.43l-.24-.32c-.76-1-1.64-2.26-2.47-3.55a21.42,21.42,0,0,1-2.41-4.82h0a5.09,5.09,0,0,1-.24-1.24l-1-1.32.31-.36,2.52-3,.55-.64,1.08,1.41s1.39-.5,5.84,3.33A32.56,32.56,0,0,1,203.18,123.56Z" transform="translate(0 -59.24)"/></g><circle class="cls-4" cx="95.44" cy="234.22" r="28.86"/><path class="cls-11" d="M123.29,293.46A27.64,27.64,0,0,1,117,311a28,28,0,0,1-4,4c-.46.38-.94.75-1.44,1.1a27.09,27.09,0,0,1-4.32,2.55,27.76,27.76,0,0,1-25.9-1.13,26,26,0,0,1-3-2h0l-.15-.13a24.73,24.73,0,0,1-3.15-2.9,27.85,27.85,0,1,1,48.21-19Z" transform="translate(0 -59.24)"/><path class="cls-15" d="M113.08,315c-.46.38-.94.75-1.44,1.1a27.09,27.09,0,0,1-4.32,2.55,27.76,27.76,0,0,1-25.9-1.13,26,26,0,0,1-3-2h0l-.15-.13,0-.19h0c.24-.9.47-1.84.68-2.82.3-1.32.57-2.69.81-4.12a60.94,60.94,0,0,0,.84-11.78c-.49-14.75,2.19-20.16,8.22-23.05.27-.13.55-.27.85-.39a8.08,8.08,0,0,1,4.25-.53h0c5.16.7,9.64,5.51,9.64,5.51a34,34,0,0,1,2.36,4,66.5,66.5,0,0,1,6.93,25.44h0A75,75,0,0,1,113.08,315Z" transform="translate(0 -59.24)"/><path class="cls-4" d="M112.87,307.4h0a8.34,8.34,0,0,0-2.91-1.52s-5.88-.57-11-.53l-1.69.08c-2.62.14-5.24.41-7.83.8-.76.11-1.52.23-2.27.37a74.62,74.62,0,0,0-7.41,1.61c-1.17.31-2.33.65-3.49,1a9.53,9.53,0,0,0-1.2,3.22,24.73,24.73,0,0,0,3.15,2.9l.15.13h0a26,26,0,0,0,3,2,27.76,27.76,0,0,0,25.9,1.13,27.09,27.09,0,0,0,4.32-2.55c.5-.35,1-.72,1.44-1.1a28,28,0,0,0,4-4A38.25,38.25,0,0,0,112.87,307.4Z" transform="translate(0 -59.24)"/><path class="cls-23" d="M112.87,307.4h0a8.34,8.34,0,0,0-2.91-1.52s-5.88-.57-11-.53l-1.69.08c-2.62.14-5.24.41-7.83.8-.76.11-1.52.23-2.27.37a74.62,74.62,0,0,0-7.41,1.61c-1.17.31-2.33.65-3.49,1a9.53,9.53,0,0,0-1.2,3.22,24.73,24.73,0,0,0,3.15,2.9l.15.13h0a26,26,0,0,0,3,2,27.76,27.76,0,0,0,25.9,1.13,27.09,27.09,0,0,0,4.32-2.55c.5-.35,1-.72,1.44-1.1a28,28,0,0,0,4-4A38.25,38.25,0,0,0,112.87,307.4Z" transform="translate(0 -59.24)"/><path class="cls-24" d="M96.81,311.15c-6.48-.83-8.42-3.6-8.42-3.6,2.64-2.5,2.16-6.18,1.49-8.48a13.18,13.18,0,0,0-.8-2.11l7.79,1.45a23.23,23.23,0,0,0-.3,3.29,10.51,10.51,0,0,0,.22,2.41c.53,2.33,1.86,2.36,1.86,2.36C100,309,96.81,311.15,96.81,311.15Z" transform="translate(0 -59.24)"/><path class="cls-16" d="M96.57,301.7a10.51,10.51,0,0,0,.22,2.41c-3.09-.41-5.44-2.89-6.91-5a13.18,13.18,0,0,0-.8-2.11l7.79,1.45A23.23,23.23,0,0,0,96.57,301.7Z" transform="translate(0 -59.24)"/><path class="cls-24" d="M95.29,276.83c6.78.25,8.82,4,9.06,11,.3,8.75-1.87,14.88-10.28,12.7C82.66,297.54,84,276.41,95.29,276.83Z" transform="translate(0 -59.24)"/><path class="cls-25" d="M100,287.25a14.61,14.61,0,0,0,1.87,2.89,1.86,1.86,0,0,1-1.82.7Z" transform="translate(0 -59.24)"/><path class="cls-15" d="M93,283.13a.38.38,0,0,1-.23-.08.36.36,0,0,1,0-.5,3.89,3.89,0,0,1,3.31-1,.37.37,0,0,1,.29.41.35.35,0,0,1-.41.29,3.22,3.22,0,0,0-2.65.8A.36.36,0,0,1,93,283.13Z" transform="translate(0 -59.24)"/><path class="cls-15" d="M103.58,282.77a.33.33,0,0,1-.21-.07,2.81,2.81,0,0,0-2.37-.6.37.37,0,0,1-.44-.23.35.35,0,0,1,.23-.45,3.51,3.51,0,0,1,3,.71.36.36,0,0,1,.08.49A.35.35,0,0,1,103.58,282.77Z" transform="translate(0 -59.24)"/><path class="cls-15" d="M99,293.47a17.41,17.41,0,0,0-.88,2.33l-.44-.06c-2-.27-2.78-1.05-3.1-1.83a2.6,2.6,0,0,1-.15-1.2,2.81,2.81,0,0,1,.15-.68,9.34,9.34,0,0,0,3.75,1.34Z" transform="translate(0 -59.24)"/><path class="cls-6" d="M98.28,293.37l-.28.68c-1.85-.27-3.12-.7-3.62-1.34a2.81,2.81,0,0,1,.15-.68A9.34,9.34,0,0,0,98.28,293.37Z" transform="translate(0 -59.24)"/><path class="cls-17" d="M97.63,295.74c-2-.27-2.78-1.05-3.1-1.83a6.32,6.32,0,0,1,2.12.74A2.28,2.28,0,0,1,97.63,295.74Z" transform="translate(0 -59.24)"/><path class="cls-15" d="M87.45,288s3.38-5.45,3.06-9.77c0,0,13.64-5,13.79,8.67,0,0,1.77-12.06-9.88-12.76S82.2,290.47,88,295.77C88,295.77,85.36,291.39,87.45,288Z" transform="translate(0 -59.24)"/><path class="cls-24" d="M88.51,289.45a3,3,0,0,0-3.1-2.83c-2.11.15-3.27,4.42,1.91,5.65C88.07,292.45,88.52,291.73,88.51,289.45Z" transform="translate(0 -59.24)"/><path class="cls-15" d="M91.48,272.35c3.67-1,13.44-1.15,15.75,9l-1.36.68a21.52,21.52,0,0,0-7.33-2.17,17.06,17.06,0,0,0-1.9-2.72,15.79,15.79,0,0,1,0,2.58s-6.38.94-9.23,3.53c-4.48,4.07-4.76,6.65-4.76,6.65S79.55,275.66,91.48,272.35Z" transform="translate(0 -59.24)"/><path class="cls-15" d="M108.18,281.22a.25.25,0,0,1-.23-.17,11.82,11.82,0,0,0-5.9-7.28c-5-2.48-11-.46-11-.44a.24.24,0,0,1-.31-.15.23.23,0,0,1,.15-.31c.06,0,6.2-2.11,11.41.46a12.29,12.29,0,0,1,6.14,7.56.25.25,0,0,1-.15.31Z" transform="translate(0 -59.24)"/><path class="cls-15" d="M94,286.55s1.59-1.35,2.34.47A4.73,4.73,0,0,0,94,286.55Z" transform="translate(0 -59.24)"/><path class="cls-15" d="M101.53,287.56s.88-1.84,2-.54A4.61,4.61,0,0,0,101.53,287.56Z" transform="translate(0 -59.24)"/><circle class="cls-4" cx="373.86" cy="343.04" r="35.76" transform="translate(-133.06 305.59) rotate(-45)"/><path class="cls-11" d="M408.62,343a34.44,34.44,0,0,1-3.71,15.61c-.47.94-1,1.85-1.54,2.74-.43.69-.88,1.37-1.37,2a34.8,34.8,0,0,1-7.25,7.39c-.63.48-1.28.93-1.95,1.37a34.71,34.71,0,0,1-33.31,2.52c-.56-.26-1.12-.53-1.67-.81h0a35.18,35.18,0,0,1-14.55-14.31c-.46-.86-.89-1.75-1.28-2.65h0A34.76,34.76,0,1,1,408.62,343Z" transform="translate(0 -59.24)"/><g id="_Group_2" data-name="&lt;Group&gt;"><path class="cls-26" d="M356.51,341.66a18.05,18.05,0,0,1-2.15,2.6l-3,14.19-2,9.26a35,35,0,0,1-6.13-8.15c.24-.75.5-1.53.75-2.32,2.12-6.58,4.56-14.2,4.74-14.95.32-1.34-.85-7.91-.58-9.12s6.27-2.62,7.57-2.6S357,340.81,356.51,341.66Z" transform="translate(0 -59.24)"/><path class="cls-4" d="M361.2,357.29a.18.18,0,0,1,0,0l-1.26,12.93-.44,4.42c-.56-.26-1.12-.53-1.67-.81h0a35.18,35.18,0,0,1-14.55-14.31c-.46-.86-.89-1.75-1.28-2.65l2,.33,7.34,1.21,1.58.26-1.85,9S357.82,358.31,361.2,357.29Z" transform="translate(0 -59.24)"/><path class="cls-27" d="M361.2,357.29a.18.18,0,0,1,0,0l-1.26,12.93-.44,4.42c-.56-.26-1.12-.53-1.67-.81h0a35.18,35.18,0,0,1-14.55-14.31c-.46-.86-.89-1.75-1.28-2.65l2,.33,7.34,1.21,1.58.26-1.85,9S357.82,358.31,361.2,357.29Z" transform="translate(0 -59.24)"/><path class="cls-4" d="M404.91,358.64c-.47.94-1,1.85-1.54,2.74-.43.69-.88,1.37-1.37,2a34.8,34.8,0,0,1-7.25,7.39c-.63.48-1.28.93-1.95,1.37a34.71,34.71,0,0,1-33.31,2.52c-.56-.26-1.12-.53-1.67-.81h0a114.26,114.26,0,0,1,3.37-16.53.18.18,0,0,0,0,0,72.22,72.22,0,0,1,11-2.24h.18a139.25,139.25,0,0,1,16.09-.34h0a76.44,76.44,0,0,1,11.09,1.1A30.43,30.43,0,0,1,404.91,358.64Z" transform="translate(0 -59.24)"/><path class="cls-27" d="M404.91,358.64c-.47.94-1,1.85-1.54,2.74-.43.69-.88,1.37-1.37,2a34.8,34.8,0,0,1-7.25,7.39c-.63.48-1.28.93-1.95,1.37a34.71,34.71,0,0,1-33.31,2.52c-.56-.26-1.12-.53-1.67-.81h0a114.26,114.26,0,0,1,3.37-16.53.18.18,0,0,0,0,0,72.22,72.22,0,0,1,11-2.24h.18a139.25,139.25,0,0,1,16.09-.34h0a76.44,76.44,0,0,1,11.09,1.1A30.43,30.43,0,0,1,404.91,358.64Z" transform="translate(0 -59.24)"/><path class="cls-12" d="M394.75,370.8c-.63.48-1.28.93-1.95,1.37a34.71,34.71,0,0,1-33.31,2.52c-.56-.26-1.12-.53-1.67-.81h0c.05-.29.09-.58.13-.86a32.29,32.29,0,0,1,2-2.74,93.31,93.31,0,0,1,11.17-11.41,6.36,6.36,0,0,0,3.89,2c3.28.64,7-.89,10.14-2.74a76.17,76.17,0,0,1,5.45,6,31.73,31.73,0,0,1,3.69,5.54Q394.54,370.26,394.75,370.8Z" transform="translate(0 -59.24)"/><path class="cls-26" d="M388.52,354.75a16.87,16.87,0,0,1-11.84,5.37c-6.73.3-4.48-5-4.48-5,2.47-.65,3.84-1.8,4.53-3.22.87-1.81.62-4.05.06-6.25l-.12-.46,9.84-8.76C385.6,341.68,384.78,351.32,388.52,354.75Z" transform="translate(0 -59.24)"/><path class="cls-16" d="M384.89,344.14c-.52,3.37-4.63,6.7-8.16,7.74.87-1.81.62-4.05.06-6.25l8.15-6.24A12.65,12.65,0,0,1,384.89,344.14Z" transform="translate(0 -59.24)"/><path class="cls-15" d="M378.52,325c2.33,2.64.22,5.56-7.47,9-1.73-4-.49-10.67,2-11.79S376.48,322.75,378.52,325Z" transform="translate(0 -59.24)"/><path class="cls-26" d="M389.32,333.39c-2.07,6.83-2.94,10.92-7.27,13.64-6.52,4.1-14.32-1.09-14.33-8.4,0-6.56,3.37-16.62,10.8-17.76a9.72,9.72,0,0,1,11.13,8.07A9.86,9.86,0,0,1,389.32,333.39Z" transform="translate(0 -59.24)"/><path class="cls-15" d="M378.53,332.84c-.13.56-.54,1-.91.86s-.55-.61-.42-1.17.53-.95.9-.87S378.62,332.28,378.53,332.84Z" transform="translate(0 -59.24)"/><path class="cls-15" d="M372.12,331.33c-.13.56-.54.95-.91.86s-.56-.61-.43-1.18.55-.95.91-.86S372.26,330.77,372.12,331.33Z" transform="translate(0 -59.24)"/><path class="cls-28" d="M374.15,332.09a20.59,20.59,0,0,1-3.84,4.18,3.36,3.36,0,0,0,2.58,1.14Z" transform="translate(0 -59.24)"/><path class="cls-15" d="M380.76,331.23a.33.33,0,0,0,.22,0,.35.35,0,0,0,.18-.45,3.37,3.37,0,0,0-2.37-2,.32.32,0,0,0-.39.25v0a.35.35,0,0,0,.28.39h0a2.66,2.66,0,0,1,1.85,1.6A.33.33,0,0,0,380.76,331.23Z" transform="translate(0 -59.24)"/><path class="cls-15" d="M369.72,328.48a.36.36,0,0,0,.35-.12,2.68,2.68,0,0,1,2.21-1.05.35.35,0,0,0,.38-.31.34.34,0,0,0-.3-.37,3.39,3.39,0,0,0-2.82,1.3.34.34,0,0,0,0,.48h0Z" transform="translate(0 -59.24)"/><path class="cls-15" d="M388,326.6c-3.5.35-3.93,3.93-.63,11.67,4-1.77,7.62-7.49,6.55-10S391.07,326.31,388,326.6Z" transform="translate(0 -59.24)"/><path class="cls-26" d="M391.3,339.71a6.72,6.72,0,0,1-4.07,3.2c-2.29.62-3.42-1.43-2.77-3.58.59-1.94,2.49-4.61,4.78-4.27A3,3,0,0,1,391.3,339.71Z" transform="translate(0 -59.24)"/><path class="cls-15" d="M381.29,323.72s-.73,7.17,5.81,9.31,9-1.61,9-1.61a13.21,13.21,0,0,1-1.67-.28,7.14,7.14,0,0,0,1.68-6.6c-1.11-3.74-6.89-8.81-12.25-8.33a12.12,12.12,0,0,0-9.55-1.47c-5.29,1.5-6,7.54-6,7.54s.69-3.59,3.1-4c0,0-4.53,6.62-1,9.59C370.44,327.83,372.67,320.75,381.29,323.72Z" transform="translate(0 -59.24)"/><path class="cls-15" d="M371.66,340a19,19,0,0,1,1.33,2.44l.47-.13c2.14-.61,2.93-1.59,3.16-2.5a2.89,2.89,0,0,0,0-1.35,2.81,2.81,0,0,0-.27-.73,10.44,10.44,0,0,1-3.94,2.05C372,339.94,371.66,340,371.66,340Z" transform="translate(0 -59.24)"/><path class="cls-6" d="M372.39,339.79l.41.71c2-.57,3.34-1.25,3.8-2a2.81,2.81,0,0,0-.27-.73A10.44,10.44,0,0,1,372.39,339.79Z" transform="translate(0 -59.24)"/><path class="cls-17" d="M373.46,342.32c2.14-.61,2.93-1.59,3.16-2.5a7.2,7.2,0,0,0-2.24,1.14A2.67,2.67,0,0,0,373.46,342.32Z" transform="translate(0 -59.24)"/></g><rect class="cls-4" x="251.05" y="153.29" width="21.1" height="21.1" rx="3.69" transform="translate(8.13 -71.55) rotate(2.74)"/><path class="cls-29" d="M267.6,160c-1.37-2.49-4.26-1.69-5.82.11-1.38-1.94-4.18-3-5.78-.66-2.71,4,2.28,8,4.65,9.57l.68.45.72-.38C264.56,167.7,269.91,164.17,267.6,160Z" transform="translate(0 -59.24)"/><path class="cls-4" d="M263.44,172.86s-3.07,6.19-9.36,7.87c0,0,3.52-1.82,3.57-8.41Z" transform="translate(0 -59.24)"/><path class="cls-20" d="M279.51,238.12s7.94-7.94,10.49-13.59c0,0-1-3.17-.06-4.8s6.2-6.34,7.61-5.34,3.45,4.94,2.61,6.59-6,5-6,5-6.43,12.89-10.41,15.8S279.51,238.12,279.51,238.12Z" transform="translate(0 -59.24)"/><path class="cls-15" d="M259.43,214.25c4.62.6,9.9,23,13.59,25.13S286.3,229.1,286.3,229.1l4.39,5S278,251.75,273,250.18s-14.43-19-14.43-19Z" transform="translate(0 -59.24)"/><path class="cls-30" d="M259.43,214.25c4.62.6,9.9,23,13.59,25.13S286.3,229.1,286.3,229.1l4.39,5S278,251.75,273,250.18s-14.43-19-14.43-19Z" transform="translate(0 -59.24)"/><polygon class="cls-20" points="287.49 361.8 281.42 362.87 278.93 354.59 276.65 346.99 283.66 344.54 285.69 353.68 287.49 361.8"/><path class="cls-15" d="M280.05,422c-.1-.67,8.22-1.6,8.22-1.6s6,4.26,11.09,4.55,2.89,3.72-2.6,4.69l-13.6,2.4C279.26,432.68,281.11,428.92,280.05,422Z" transform="translate(0 -59.24)"/><path class="cls-4" d="M292.35,421.74a13.75,13.75,0,0,1-3-.48l-.07,0h0l-.06-.06h0l0-.05h0a.38.38,0,0,1,0-.1c0-.1.37-2.13,1.4-2.79a1.23,1.23,0,0,1,1.07-.16c.41.11.63.31.67.59,0,.44-.46,1-1.07,1.45a3.46,3.46,0,0,1,1.88-.12.86.86,0,0,1,.54.48.81.81,0,0,1,0,.91A1.74,1.74,0,0,1,292.35,421.74ZM290.1,421c1.3.3,2.89.49,3.22.1,0,0,.12-.13,0-.44a.46.46,0,0,0-.29-.25A5.6,5.6,0,0,0,290.1,421Zm1.21-2.53a.8.8,0,0,0-.46.14,3.71,3.71,0,0,0-1.1,2c1.14-.68,2.2-1.53,2.16-1.91,0-.11-.22-.18-.34-.22A1.15,1.15,0,0,0,291.31,418.45Z" transform="translate(0 -59.24)"/><polygon class="cls-16" points="285.72 353.87 278.96 354.76 276.67 347.07 283.67 344.58 285.72 353.87"/><polygon class="cls-20" points="246.94 364.4 240.77 364.4 239.76 355.81 238.84 347.93 246.17 346.74 246.58 356.09 246.94 364.4"/><path class="cls-15" d="M239.45,423.25c0-.68,8.37-.15,8.37-.15s5.14,5.23,10.14,6.4,2.2,4.18-3.38,4.18H240.77C236.81,433.68,239.29,430.3,239.45,423.25Z" transform="translate(0 -59.24)"/><path class="cls-4" d="M252.22,425.24a10.43,10.43,0,0,1-3.46-1.06.16.16,0,0,1-.08-.06h0l0,0a.25.25,0,0,1,0-.17c0-.08.73-2,1.87-2.51a1.35,1.35,0,0,1,1.08,0c.38.18.56.42.55.71,0,.44-.62.88-1.3,1.24a3.45,3.45,0,0,1,1.87.2.9.9,0,0,1,.45.57.82.82,0,0,1-.2.89A1.2,1.2,0,0,1,252.22,425.24Zm-2.7-1.2c1.23.52,2.76,1,3.16.66,0,0,.13-.11,0-.44a.45.45,0,0,0-.24-.29A5.39,5.39,0,0,0,249.52,424Zm1.49-2.3a.78.78,0,0,0-.33.07,3.71,3.71,0,0,0-1.44,1.8c1.24-.47,2.44-1.12,2.46-1.5,0-.11-.19-.22-.3-.28A.92.92,0,0,0,251,421.74Z" transform="translate(0 -59.24)"/><polygon class="cls-16" points="246.58 356.28 239.76 355.98 238.84 348.02 246.17 346.78 246.58 356.28"/><path class="cls-4" d="M286.3,408.29l-10,1.76C266.23,384.94,259.07,364,254,346.6c-2.73-9.38-4.85-17.73-6.49-25.13L248,348.8v62.08H237.84c-24.67-117.63-7.19-144.52-7.19-144.52l29.51-5a133.25,133.25,0,0,1,2.47,16.51l1.33,9.76,11.54,59.57Z" transform="translate(0 -59.24)"/><polygon class="cls-4" points="274.75 349.57 287.13 345.47 286.96 350.73 276.72 354 274.75 349.57"/><polygon class="cls-4" points="236.51 350.14 249.43 348.25 248.34 353.41 237.69 354.85 236.51 350.14"/><path class="cls-15" d="M257.5,202a.33.33,0,0,1-.13,0c-3.76-2.27-7.12-10.63-7.26-11a.26.26,0,0,1,.14-.33.27.27,0,0,1,.33.15c0,.08,3.43,8.54,7,10.73a.26.26,0,0,1,.09.35A.27.27,0,0,1,257.5,202Z" transform="translate(0 -59.24)"/><path class="cls-15" d="M227.23,180.05s1.47-5,11.27-5.84,14.67,8.8,12.36,16c0,0,2.06,9.77,6,12.64,0,0-18.86,8.52-28.38,8.57-2.12,0-6.64-10.51-7.23-18.09C220.71,186,222.91,180.28,227.23,180.05Z" transform="translate(0 -59.24)"/><polygon class="cls-15" points="230.65 202.71 230.65 207.12 260.75 204.81 260.75 199.6 230.65 202.71"/><polygon class="cls-31" points="230.65 202.71 230.65 207.12 260.75 204.81 260.75 199.6 230.65 202.71"/><rect class="cls-6" x="247.42" y="260.2" width="6.61" height="5.01" transform="translate(-22.43 -35.83) rotate(-5.12)"/><rect class="cls-4" x="239.46" y="260.13" width="1.49" height="7.61" transform="translate(-13.16 -46.63) rotate(-2.93)"/><rect class="cls-4" x="257.84" y="258.12" width="1.49" height="7.61" transform="translate(-13 -45.73) rotate(-2.92)"/><path class="cls-15" d="M260.87,259.37l-30.1,2.6c-.29-4.55-.58-8.45-1.27-12.82-.44-2.8-1.05-5.8-1.93-9.29-.68-2.73-1.53-5.77-2.61-9.25-.05-.19-.11-.38-.17-.57-.62-2-5-.47-5.43-2.86-1.74-10.64,9.74-11.42,14-12.12a95.8,95.8,0,0,1,13.52-1.42c5.85,0,12.58.61,12.58.61s1,.23,1.56,6.44C261.54,226.51,262.08,238.17,260.87,259.37Z" transform="translate(0 -59.24)"/><path class="cls-20" d="M244.36,220.28c-7.41-.94-9.64-4.11-9.64-4.11,4.7-4.44.79-12.14.79-12.14l8.93,1.67a27.75,27.75,0,0,0-.35,3.76c-.06,5.42,2.39,5.47,2.39,5.47C248,217.87,244.36,220.28,244.36,220.28Z" transform="translate(0 -59.24)"/><path class="cls-16" d="M244.44,205.7a27.75,27.75,0,0,0-.35,3.76c-6,0-8.58-5.43-8.58-5.43Z" transform="translate(0 -59.24)"/><path class="cls-20" d="M237.6,180.71c7.58-1.72,10.94,1.79,13.26,9.47,2.91,9.61,2.31,17-7.64,17.1C229.71,207.36,225,183.56,237.6,180.71Z" transform="translate(0 -59.24)"/><path class="cls-22" d="M245.86,190.87a16.4,16.4,0,0,0,2.92,2.64,2.12,2.12,0,0,1-1.8,1.31Z" transform="translate(0 -59.24)"/><path class="cls-15" d="M241.08,191.3c.16.62-.05,1.21-.46,1.31s-.88-.31-1-.93,0-1.21.46-1.31S240.93,190.68,241.08,191.3Z" transform="translate(0 -59.24)"/><path class="cls-15" d="M239.89,190.44l1.21-.87S240.72,190.88,239.89,190.44Z" transform="translate(0 -59.24)"/><path class="cls-15" d="M248.75,189.24c.16.62-.05,1.2-.46,1.31s-.88-.32-1-.94.05-1.2.46-1.31S248.6,188.62,248.75,189.24Z" transform="translate(0 -59.24)"/><path class="cls-15" d="M247.56,188.38l1.21-.87S248.39,188.81,247.56,188.38Z" transform="translate(0 -59.24)"/><path class="cls-15" d="M236.79,188.34a.53.53,0,0,1-.16,0,.36.36,0,0,1-.16-.49,4.38,4.38,0,0,1,3.32-2.09.37.37,0,0,1,.39.33.35.35,0,0,1-.32.39,3.76,3.76,0,0,0-2.74,1.69A.36.36,0,0,1,236.79,188.34Z" transform="translate(0 -59.24)"/><path class="cls-15" d="M245.26,184.88a.35.35,0,0,1-.3-.17.37.37,0,0,1,.1-.5,4,4,0,0,1,3.49-.09.35.35,0,0,1,.21.46.36.36,0,0,1-.47.21,3.23,3.23,0,0,0-2.83,0A.36.36,0,0,1,245.26,184.88Z" transform="translate(0 -59.24)"/><path class="cls-15" d="M246.55,198.06a19.89,19.89,0,0,0-.29,2.83l-.5.07c-2.25.27-3.39-.34-4-1.11a2.84,2.84,0,0,1-.52-1.29,2.72,2.72,0,0,1,0-.79,10.82,10.82,0,0,0,4.54.37Z" transform="translate(0 -59.24)"/><path class="cls-6" d="M245.78,198.14l-.11.83c-2.13.26-3.66.15-4.4-.41a2.72,2.72,0,0,1,0-.79A10.82,10.82,0,0,0,245.78,198.14Z" transform="translate(0 -59.24)"/><path class="cls-17" d="M245.76,201c-2.25.27-3.39-.34-4-1.11a7.13,7.13,0,0,1,2.57.19A2.69,2.69,0,0,1,245.76,201Z" transform="translate(0 -59.24)"/><path class="cls-15" d="M232.2,195.36s2.14-7,.51-11.72c0,0,13.64-9.54,17.83,5.54,0,0-1.6-13.87-14.7-11.22s-8.73,21.7-.71,25.86C235.13,203.82,230.89,199.75,232.2,195.36Z" transform="translate(0 -59.24)"/><path class="cls-20" d="M233.81,196.68a3.42,3.42,0,0,0-4.27-2.23c-2.29.79-2.32,5.87,3.78,5.7C234.2,200.13,234.49,199.2,233.81,196.68Z" transform="translate(0 -59.24)"/><path class="cls-15" d="M232.71,183.64s7.86-2.89,12.28-.71c0,0-4.76-4.28-12.84-.25Z" transform="translate(0 -59.24)"/><path class="cls-20" d="M227.84,217s8.71,7.07,16.82,6.95,11-9.23,11-9.23S243,211,227.84,217Z" transform="translate(0 -59.24)"/><path class="cls-16" d="M254,346.6c-2.73-9.38-4.85-17.73-6.49-25.13a232.53,232.53,0,0,1,1.91-26.21S253.75,329.06,254,346.6Z" transform="translate(0 -59.24)"/><path class="cls-20" d="M203.47,232.65s-6-9.52-7.2-15.6c0,0,1.65-2.87,1.13-4.66s-4.63-7.56-6.22-6.91-4.47,4.05-4,5.85,4.76,6.25,4.76,6.25,3.39,14,6.62,17.72S203.47,232.65,203.47,232.65Z" transform="translate(0 -59.24)"/><path class="cls-15" d="M219.72,222c3-.42,9.16,5.51,8.23,10.63s-9.51,19.52-16.13,18.4c-9.35-1.59-19.62-26.23-19.62-26.23l5.13-4.48s12.11,21,14.49,20.57S219.72,222,219.72,222Z" transform="translate(0 -59.24)"/><path class="cls-30" d="M219.72,222c3-.42,9.16,5.51,8.23,10.63s-9.51,19.52-16.13,18.4c-9.35-1.59-19.62-26.23-19.62-26.23l5.13-4.48s12.11,21,14.49,20.57S219.72,222,219.72,222Z" transform="translate(0 -59.24)"/><polygon class="cls-15" points="190.1 164.01 197.59 159.51 198.78 161.45 191.71 167.71 190.1 164.01"/><polygon class="cls-15" points="284.63 169.72 290.69 177.23 291.75 174.87 286.3 168.53 284.63 169.72"/><path class="cls-4" d="M287.66,218.81l9.58-11.68a.91.91,0,0,1,1.32-.08l4.27,4a.9.9,0,0,1,.08,1.23l-9.73,11.94a.9.9,0,0,1-1.35.06L287.7,220A.91.91,0,0,1,287.66,218.81Z" transform="translate(0 -59.24)"/><path class="cls-14" d="M287.66,218.81l9.58-11.68a.91.91,0,0,1,1.32-.08l4.27,4a.9.9,0,0,1,.08,1.23l-9.73,11.94a.9.9,0,0,1-1.35.06L287.7,220A.91.91,0,0,1,287.66,218.81Z" transform="translate(0 -59.24)"/><path class="cls-4" d="M287.27,218.34l9.59-11.68a.91.91,0,0,1,1.32-.08l4.27,4a.91.91,0,0,1,.08,1.23l-9.73,11.94a.91.91,0,0,1-1.36.06l-4.12-4.3A.9.9,0,0,1,287.27,218.34Z" transform="translate(0 -59.24)"/><polygon class="cls-29" points="297.24 147.89 301.98 152.47 292.71 163.88 288.1 159.03 297.24 147.89"/></g></svg>